<svg height="480pt" viewBox="0 0 480 480" width="480pt" xmlns="http://www.w3.org/2000/svg"><path d="m472 56v224c-.027344 8.824219-7.175781 15.972656-16 16h-224c-8.824219-.027344-15.972656-7.175781-16-16v-224zm0 0" fill="#5aaae7"/><g fill="#ffd422"><path d="m366.558594 296c-2.722656-7.769531-9.253906-13.589844-17.28125-15.410156-8.027344-1.820313-16.429688.617187-22.238282 6.449218-2.542968 2.503907-4.464843 5.574219-5.597656 8.960938-.96875 2.554688-1.457031 5.265625-1.441406 8 0 13.253906 10.746094 24 24 24s24-10.746094 24-24c.015625-2.734375-.472656-5.445312-1.441406-8zm0 0"/><path d="m400 208c0 13.253906-10.746094 24-24 24s-24-10.746094-24-24 10.746094-24 24-24 24 10.746094 24 24zm0 0"/><path d="m344 88c13.253906 0 24 10.746094 24 24s-10.746094 24-24 24-24-10.746094-24-24 10.746094-24 24-24zm0 0"/></g><path d="m270.640625 185.359375c10.800781 10.789063 12.476563 27.703125 4.003906 40.402344-8.476562 12.699219-24.738281 17.644531-38.84375 11.8125-14.109375-5.835938-22.132812-20.820313-19.164062-35.792969 2.964843-14.976562 16.097656-25.769531 31.363281-25.78125 8.484375.015625 16.621094 3.378906 22.640625 9.359375zm0 0" fill="#ff5023"/><path d="m192 472h-184v-83.359375c.03125-21.636719 14.5-40.589844 35.359375-46.320313l41.761719-11.359374 34.878906 29.039062 34.878906-29.039062 41.761719 11.359374c20.859375 5.730469 35.328125 24.683594 35.359375 46.320313v83.359375zm0 0" fill="#00ccb3"/><path d="m154.878906 330.960938-34.878906 29.039062-34.878906-29.039062 10.878906-2.960938v-22.480469c14.832031 8.640625 33.167969 8.640625 48 0v22.480469zm0 0" fill="#ffce8c"/><path d="m139.441406 229.839844c2.710938 10.652344 12.285156 18.121094 23.277344 18.160156h5.28125v16c.007812 17.136719-9.144531 32.972656-24 41.519531-14.832031 8.640625-33.167969 8.640625-48 0-3.636719-2.070312-6.972656-4.625-9.921875-7.597656-9.042969-8.964844-14.117187-21.1875-14.078125-33.921875v-16h8c14.550781.015625 28.667969-4.953125 40-14.078125 4.1875-3.375 7.945312-7.242187 11.199219-11.523437l4.800781-6.398438zm0 0" fill="#ffdaaa"/><path d="m120 233.921875c-11.332031 9.125-25.449219 14.09375-40 14.078125h-8c-2.703125.023438-5.394531-.324219-8-1.039062-14.132812-3.625-24.011719-16.371094-24-30.960938v-40c0-4.417969 3.582031-8 8-8h72c30.929688 0 56 25.070312 56 56v24h-13.28125c-10.992188-.039062-20.566406-7.507812-23.277344-18.160156l-3.441406-13.839844-4.800781 6.398438c-3.253907 4.28125-7.011719 8.148437-11.199219 11.523437zm0 0" fill="#57565c"/><path d="m232 8h224c8.824219.027344 15.972656 7.175781 16 16v32h-256v-32c.027344-8.824219 7.175781-15.972656 16-16zm0 0" fill="#ff6243"/><path d="m344 272c-5.695312.027344-11.277344 1.59375-16.152344 4.535156l-46.511718-46.511718c2.839843-4.253907 4.832031-9.015626 5.863281-14.023438h57.945312c4.027344 15.601562 19.03125 25.777344 35.015625 23.746094s27.96875-15.632813 27.96875-31.746094-11.984375-29.714844-27.96875-31.746094-30.988281 8.144532-35.015625 23.746094h-57.945312c-1.03125-5.007812-3.019531-9.769531-5.855469-14.023438l46.511719-46.511718c4.875 2.9375 10.453125 4.503906 16.144531 4.535156 17.671875 0 32-14.328125 32-32s-14.328125-32-32-32-32 14.328125-32 32c.027344 5.695312 1.59375 11.277344 4.535156 16.152344l-46.511718 46.511718c-16.699219-11.074218-39.015626-8.082031-52.210938 6.996094-13.195312 15.082032-13.195312 37.597656 0 52.679688 13.195312 15.078125 35.511719 18.070312 52.210938 6.996094l46.511718 46.511718c-2.941406 4.875-4.507812 10.457032-4.535156 16.152344 0 17.671875 14.328125 32 32 32s32-14.328125 32-32-14.328125-32-32-32zm32-80c8.835938 0 16 7.164062 16 16s-7.164062 16-16 16-16-7.164062-16-16 7.164062-16 16-16zm-32-96c8.835938 0 16 7.164062 16 16s-7.164062 16-16 16-16-7.164062-16-16 7.164062-16 16-16zm-96 136c-13.253906 0-24-10.746094-24-24s10.746094-24 24-24 24 10.746094 24 24-10.746094 24-24 24zm96 88c-8.835938 0-16-7.164062-16-16s7.164062-16 16-16 16 7.164062 16 16-7.164062 16-16 16zm0 0"/><path d="m456 0h-224c-13.253906 0-24 10.746094-24 24v136h16v-96h240v216c0 4.417969-3.582031 8-8 8h-64v16h64c13.253906 0 24-10.746094 24-24v-256c0-13.253906-10.746094-24-24-24zm-232 48v-24c0-4.417969 3.582031-8 8-8h224c4.417969 0 8 3.582031 8 8v24zm0 0"/><path d="m232 304h64v-16h-64c-4.417969 0-8-3.582031-8-8v-24h-16v24c0 13.253906 10.746094 24 24 24zm0 0"/><path d="m336 392h-80v16h88c4.417969 0 8-3.582031 8-8v-48h-16zm0 0"/><path d="m256 424h16v16h-16zm0 0"/><path d="m288 424h16v16h-16zm0 0"/><path d="m368 352h16v16h-16zm0 0"/><path d="m368 384h16v16h-16zm0 0"/><path d="m320 424h16v16h-16zm0 0"/><path d="m64 80v16h76.6875l-10.34375 10.34375 11.3125 11.3125 24-24c3.121094-3.125 3.121094-8.1875 0-11.3125l-24-24-11.3125 11.3125 10.34375 10.34375zm0 0"/><path d="m240 24h16v16h-16zm0 0"/><path d="m272 24h16v16h-16zm0 0"/><path d="m304 24h16v16h-16zm0 0"/><path d="m32 80h16v16h-16zm0 0"/><path d="m0 80h16v16h-16zm0 0"/><path d="m56 32h48v16h-48zm0 0"/><path d="m24 32h16v16h-16zm0 0"/><path d="m198.742188 334.601562-46.742188-12.714843v-12c15.027344-10.445313 23.988281-27.585938 24-45.886719v-8c4.417969 0 8-3.582031 8-8v-24c-.039062-35.328125-28.671875-63.960938-64-64h-72c-8.835938 0-16 7.164062-16 16v40c-.050781 18.1875 12.226562 34.101562 29.832031 38.664062.710938.199219 1.449219.289063 2.167969.441407v8.894531c.011719 18.300781 8.976562 35.4375 24 45.886719v12l-46.769531 12.722656c-24.300781 6.726563-41.1562502 28.8125-41.230469 54.03125v83.359375c0 4.417969 3.582031 8 8 8h224c4.417969 0 8-3.582031 8-8v-83.359375c-.078125-25.226563-16.941406-47.316406-41.257812-54.039063zm-150.742188-118.601562v-40h72c26.5.027344 47.972656 21.5 48 48v16h-5.28125c-7.324219-.015625-13.710938-4.988281-15.519531-12.089844l-3.429688-13.839844c-.746093-3-3.15625-5.300781-6.183593-5.910156-.523438-.109375-1.054688-.164062-1.585938-.160156-2.519531 0-4.890625 1.1875-6.398438 3.199219l-4.800781 6.402343c-2.867187 3.761719-6.175781 7.164063-9.855469 10.132813-9.914062 7.945313-22.242187 12.269531-34.945312 12.265625h-8c-2.039062.019531-4.070312-.25-6.03125-.800781-10.59375-2.710938-17.992188-12.265625-17.96875-23.199219zm32 48v-8c16.378906-.003906 32.265625-5.597656 45.03125-15.855469 2.519531-2.039062 4.90625-4.238281 7.144531-6.585937 3.917969 12.359375 14.90625 21.132812 27.824219 22.21875v8.222656c0 22.089844-17.910156 40-40 40s-40-17.910156-40-40zm40 56c5.421875-.015625 10.8125-.824219 16-2.398438v10.398438c.027344 2.292969 1.042969 4.460938 2.792969 5.945312l-18.792969 15.65625-18.792969-15.648437c1.75-1.484375 2.769531-3.65625 2.792969-5.953125v-10.398438c5.1875 1.574219 10.578125 2.382813 16 2.398438zm104 144h-24v-72h-16v72h-128v-72h-16v72h-24v-75.359375c.058594-18.015625 12.101562-33.792969 29.464844-38.601563l37.734375-10.261718 31.679687 26.398437c2.96875 2.472657 7.273438 2.472657 10.242188 0l31.679687-26.398437 37.710938 10.253906c17.371093 4.804688 29.421875 20.585938 29.488281 38.609375zm0 0"/></svg>