<svg enable-background="new 0 0 256 256" height="512" viewBox="0 0 256 256" width="512" xmlns="http://www.w3.org/2000/svg"><g id="Layer_35"><g><g><g><path d="m231.017 102.667-98.15-98.151c-1.291-1.291-3.041-2.016-4.867-2.016s-3.576.725-4.866 2.016l-98.15 98.151c-2.689 2.688-2.689 7.046 0 9.734 2.686 2.688 7.047 2.688 9.733 0l93.283-93.284 93.284 93.284c2.687 2.689 7.047 2.687 9.733 0 2.689-2.688 2.689-7.046 0-9.734z" fill="#b598f9"/></g></g><g><g><path d="m128 19.117-87.758 87.758v146.625h175.516v-146.625z" fill="#9be5f9"/></g></g><g><g><path d="m86.066 134.669c-3.909 0-7.078 3.169-7.078 7.078v48.456c0 3.909 3.169 7.078 7.078 7.078s7.078-3.169 7.078-7.078v-48.456c0-3.909-3.169-7.078-7.078-7.078z" fill="#818182"/></g></g><g><g><path d="m71.911 140.386c-3.909 0-7.078 3.169-7.078 7.078v37.023c0 3.909 3.169 7.078 7.078 7.078 3.909 0 7.078-3.169 7.078-7.078v-37.023c0-3.91-3.169-7.078-7.078-7.078z" fill="#818182"/></g></g><g><g><path d="m61.021 158.897c-3.909 0-7.078 3.169-7.078 7.078s3.169 7.078 7.078 7.078h3.811v-14.156z" fill="#5b5d60"/></g></g><g><g><path d="m169.934 134.669c-3.909 0-7.078 3.169-7.078 7.078v48.456c0 3.909 3.169 7.078 7.078 7.078s7.078-3.169 7.078-7.078v-48.456c-.001-3.909-3.169-7.078-7.078-7.078z" fill="#818182"/></g></g><g><g><path d="m184.089 140.386c-3.909 0-7.078 3.169-7.078 7.078v37.023c0 3.909 3.169 7.078 7.078 7.078 3.909 0 7.078-3.169 7.078-7.078v-37.023c0-3.91-3.168-7.078-7.078-7.078z" fill="#818182"/></g></g><g><g><path d="m194.979 158.897h-3.811v14.156h3.811c3.909 0 7.078-3.169 7.078-7.078s-3.17-7.078-7.078-7.078z" fill="#5b5d60"/></g></g><g><g><path d="m93.144 158.897h69.711v14.156h-69.711z" fill="#edf4fc"/></g></g><g><g><path d="m137.562 158.897h12.494v14.156h-12.494z" fill="#c7d7e5"/></g></g><g><g><path d="m105.944 158.897h11.319v14.156h-11.319z" fill="#c7d7e5"/></g></g><g><g><g><g><path d="m232.784 100.899-98.149-98.15c-1.773-1.773-4.128-2.749-6.635-2.749s-4.862.976-6.634 2.749l-98.15 98.15c-1.772 1.772-2.749 4.129-2.749 6.635s.977 4.863 2.748 6.635c1.772 1.772 4.128 2.748 6.635 2.748s4.862-.976 6.634-2.748l91.516-91.516 91.516 91.515c1.771 1.773 4.128 2.749 6.636 2.749 2.507 0 4.862-.977 6.633-2.748 1.772-1.772 2.749-4.129 2.749-6.635-.001-2.506-.977-4.863-2.75-6.635zm-3.536 9.735c-.826.827-1.927 1.283-3.098 1.283s-2.271-.456-3.098-1.283h-.001l-93.283-93.284c-.488-.488-1.128-.732-1.768-.732s-1.279.244-1.768.732l-93.285 93.284c-.826.828-1.927 1.283-3.098 1.283s-2.271-.456-3.099-1.284-1.284-1.928-1.284-3.099c0-1.17.456-2.271 1.284-3.099l98.151-98.151c.828-.828 1.928-1.284 3.099-1.284s2.271.456 3.099 1.284l98.15 98.151c.828.828 1.284 1.928 1.284 3.099s-.456 2.271-1.285 3.1z"/></g></g></g></g><g><g><path d="m222.984 251h-189.968c-1.381 0-2.5 1.119-2.5 2.5s1.119 2.5 2.5 2.5h189.969c1.381 0 2.5-1.119 2.5-2.5s-1.12-2.5-2.501-2.5z"/></g></g><g><g><g><path d="m217.525 105.107-87.757-87.757c-.977-.977-2.559-.977-3.535 0l-87.758 87.757c-.469.469-.732 1.104-.732 1.768v146.625c0 1.381 1.119 2.5 2.5 2.5h175.516c1.381 0 2.5-1.119 2.5-2.5v-146.625c-.001-.664-.265-1.299-.734-1.768zm-4.267 145.893h-170.516v-143.09l85.258-85.257 85.258 85.257z"/></g></g></g><g><g><path d="m22.206 198.1h-2.4v-2.3c0-1.8-1.4-3.2-3.2-3.2-1.7 0-3.2 1.4-3.2 3.1v2.4h-2.3c-1.8 0-3.2 1.4-3.2 3.2-.1 1.7 1.3 3.2 3.2 3.2h2.3v2.3c0 1.8 1.4 3.2 3.2 3.2 1.7 0 3.2-1.4 3.2-3.1v-2.4h2.3c1.8 0 3.2-1.4 3.2-3.2 0-1.7-1.4-3.2-3.1-3.2z" fill="#70d6f9"/></g></g><g><g><path d="m22.506 228.5c-1.878 0-3.4 1.522-3.4 3.4s1.522 3.4 3.4 3.4 3.4-1.522 3.4-3.4-1.522-3.4-3.4-3.4z" fill="#f5c84c"/></g></g><g><g><path d="m170.506 0c-1.878 0-3.4 1.522-3.4 3.4s1.522 3.4 3.4 3.4 3.4-1.522 3.4-3.4-1.522-3.4-3.4-3.4z" fill="#87d147"/></g></g><g><g><path d="m241.288 201.2c-3.1-.6-5.6-3-6.2-6.1 0-.1-.3-.1-.3 0-.6 3.1-3.1 5.5-6.2 6.1-.1 0-.1.2 0 .3 3.1.6 5.6 3 6.2 6.1 0 .1.3.1.3 0 .6-3.1 3.1-5.5 6.2-6.1.1-.1.1-.3 0-.3z" fill="#fc657e"/></g></g><g><g><path d="m200.288 24.2c-4.5-.8-8-4.3-8.9-8.7 0-.2-.4-.2-.4 0-.9 4.4-4.4 7.9-8.9 8.7-.2 0-.2.3 0 .4 4.5.8 8 4.3 8.9 8.7 0 .2.4.2.4 0 .9-4.4 4.4-7.9 8.9-8.7.2-.1.2-.4 0-.4z" fill="#f5c84c"/></g></g><g><g><g><path d="m86.066 132.169c-5.281 0-9.578 4.296-9.578 9.578v48.457c0 5.281 4.297 9.578 9.578 9.578s9.578-4.297 9.578-9.578v-48.457c.001-5.282-4.296-9.578-9.578-9.578zm4.579 58.034c0 2.524-2.054 4.578-4.578 4.578s-4.578-2.054-4.578-4.578v-48.457c0-2.524 2.054-4.578 4.578-4.578s4.578 2.054 4.578 4.578z"/></g></g></g><g><g><g><path d="m71.91 137.886c-5.281 0-9.577 4.296-9.577 9.578v37.023c0 5.281 4.296 9.578 9.577 9.578s9.578-4.297 9.578-9.578v-37.023c0-5.282-4.297-9.578-9.578-9.578zm4.578 46.6c0 2.524-2.054 4.578-4.578 4.578-2.523 0-4.577-2.054-4.577-4.578v-37.023c0-2.524 2.054-4.578 4.577-4.578 2.524 0 4.578 2.054 4.578 4.578z"/></g></g></g><g><g><g><g><path d="m64.833 156.397h-3.812c-5.281 0-9.578 4.297-9.578 9.578s4.297 9.578 9.578 9.578h3.812c1.381 0 2.5-1.119 2.5-2.5v-14.156c0-1.381-1.119-2.5-2.5-2.5zm-2.5 14.156h-1.312c-2.524 0-4.578-2.054-4.578-4.578s2.054-4.578 4.578-4.578h1.312z"/></g></g></g></g><g><g><g><path d="m169.934 132.169c-5.281 0-9.578 4.296-9.578 9.578v48.457c0 5.281 4.297 9.578 9.578 9.578s9.578-4.297 9.578-9.578v-48.457c0-5.282-4.297-9.578-9.578-9.578zm4.578 58.034c0 2.524-2.054 4.578-4.578 4.578s-4.578-2.054-4.578-4.578v-48.457c0-2.524 2.054-4.578 4.578-4.578s4.578 2.054 4.578 4.578z"/></g></g></g><g><g><g><path d="m184.09 137.886c-5.281 0-9.578 4.296-9.578 9.578v37.023c0 5.281 4.297 9.578 9.578 9.578s9.577-4.297 9.577-9.578v-37.023c0-5.282-4.296-9.578-9.577-9.578zm4.577 46.6c0 2.524-2.054 4.578-4.577 4.578-2.524 0-4.578-2.054-4.578-4.578v-37.023c0-2.524 2.054-4.578 4.578-4.578 2.523 0 4.577 2.054 4.577 4.578z"/></g></g></g><g><g><g><g><path d="m194.979 156.397h-3.812c-1.381 0-2.5 1.119-2.5 2.5v14.156c0 1.381 1.119 2.5 2.5 2.5h3.812c5.281 0 9.578-4.296 9.578-9.578s-4.297-9.578-9.578-9.578zm0 14.156h-1.312v-9.156h1.312c2.524 0 4.578 2.054 4.578 4.578s-2.054 4.578-4.578 4.578z"/></g></g></g></g><g><g><g><path d="m162.855 156.397h-69.71c-1.381 0-2.5 1.119-2.5 2.5v14.156c0 1.381 1.119 2.5 2.5 2.5h69.711c1.381 0 2.5-1.119 2.5-2.5v-14.156c-.001-1.381-1.12-2.5-2.501-2.5zm-2.5 14.156h-64.71v-9.156h64.711v9.156z"/></g></g></g><g><g><g><path d="m150.057 156.397h-12.494c-1.381 0-2.5 1.119-2.5 2.5v14.156c0 1.381 1.119 2.5 2.5 2.5h12.494c1.381 0 2.5-1.119 2.5-2.5v-14.156c0-1.381-1.119-2.5-2.5-2.5zm-2.5 14.156h-7.494v-9.156h7.494z"/></g></g></g><g><g><g><path d="m117.263 156.397h-11.319c-1.381 0-2.5 1.119-2.5 2.5v14.156c0 1.381 1.119 2.5 2.5 2.5h11.319c1.381 0 2.5-1.119 2.5-2.5v-14.156c0-1.381-1.119-2.5-2.5-2.5zm-2.5 14.156h-6.319v-9.156h6.319z"/></g></g></g></g></g></svg>